#N canvas 655 145 1133 825 12;
#X declare -path ./;
#X obj 436 535 mage~;
#X obj 424 566 dac~;
#X msg -122 153 alpha \$1;
#X msg -36 153 volume \$1;
#X obj -119 104 hsl 64 15 0.1 0.9 0 0 empty empty empty -2 -8 0 10
-262144 -1 -1 0 1;
#X obj -119 612 hsl 64 15 12 1200 0 0 empty empty empty -2 -8 0 10
-262144 -1 -1 600 1;
#X obj -33 104 hsl 64 15 0 1 0 0 empty empty empty -2 -8 0 10 -262144
-1 -1 0 1;
#X floatatom -115 126 5 0 0 0 - - -;
#X floatatom -114 682 5 0 0 0 - - -;
#X floatatom -29 126 5 0 0 0 - - -;
#X obj -114 633 / 240;
#X obj -114 658 pow -1;
#X msg -122 586 set 240;
#X msg -36 77 set 1;
#X msg -122 77 set 0.55;
#X msg 485 490 reset;
#X obj -119 266 hsl 64 15 20 1000 0 0 empty empty empty -2 -8 0 10
-262144 -1 -1 0 1;
#X floatatom -114 287 5 0 0 0 - - -;
#X msg -122 241 set 1;
#X msg -122 312 pitchoverwrite \$1;
#X obj 16 266 hsl 64 15 0.25 4 0 0 empty empty empty -2 -8 0 10 -262144
-1 -1 0 1;
#X floatatom 21 288 5 0 0 0 - - -;
#X msg 13 240 set 1;
#X msg 13 312 pitchscale \$1;
#X obj 123 266 hsl 64 15 -200 1000 0 0 empty empty empty -2 -8 0 10
-262144 -1 -1 0 1;
#X floatatom 129 288 5 0 0 0 - - -;
#X msg 120 241 set 1;
#X msg 120 312 pitchshift \$1;
#X msg 230 312 pitchsynth;
#X msg 661 324 labelfill;
#X msg 698 527 labelnext;
#X msg 661 405 labelreplace 42;
#X msg 661 431 labelswitch -15;
#X obj 664 359 hsl 64 15 0 200 0 0 empty empty empty -2 -8 0 10 -262144
-1 -1 0 1;
#X msg 661 379 labelinsert \$1;
#X msg 676 465 bang;
#X msg 720 465 stop;
#X obj 698 498 metro 250;
#X obj 56 104 hsl 128 15 0 1 0 0 empty empty empty -2 -8 0 10 -262144
-1 -1 0 1;
#X obj 195 104 hsl 128 15 0 1 0 0 empty empty empty -2 -8 0 10 -262144
-1 -1 0 1;
#X msg 54 125 interpolate awb \$1;
#X msg 192 125 interpolate slt \$1;
#X msg 486 459 debug;
#X msg -124 11 \; pd dsp 1;
#X msg -39 11 \; pd dsp 0;
#X obj -122 179 s alpha;
#X obj -36 179 s volume;
#X obj 111 179 s interpolate;
#X obj 13 359 s pitch;
#X obj -118 427 hsl 64 15 20 1000 0 0 empty empty empty -2 -8 0 10
-262144 -1 -1 0 1;
#X floatatom -113 448 5 0 0 0 - - -;
#X msg -121 402 set 1;
#X obj 29 427 hsl 64 15 -200 1000 0 0 empty empty empty -2 -8 0 10 -262144
-1 -1 0 1;
#X floatatom 34 449 5 0 0 0 - - -;
#X msg 26 401 set 1;
#X obj 146 427 hsl 64 15 0.25 4 0 0 empty empty empty -2 -8 0 10
-262144 -1 -1 0 1;
#X floatatom 152 449 5 0 0 0 - - -;
#X msg 143 402 set 1;
#X obj 26 541 s pitch;
#X msg -121 474 pitch \$1 overwrite;
#X msg -121 500 pitch \$1 0;
#X msg 26 475 pitch \$1 shift;
#X msg 26 501 pitch \$1 1;
#X msg 143 475 pitch \$1 scale;
#X msg 143 501 pitch \$1 2;
#X obj 436 308 r alpha;
#X obj 436 337 r pitch;
#X obj 436 366 r volume;
#X obj 436 392 r interpolate;
#X obj 661 568 s label;
#X obj 481 425 r label;
#X msg -122 707 speed \$1 overwrite;
#X msg -122 733 speed \$1 0;
#X obj 24 611 hsl 64 15 -200 1000 0 0 empty empty empty -2 -8 0 10 -262144
-1 -1 0 1;
#X floatatom 29 681 5 0 0 0 - - -;
#X obj 29 632 / 240;
#X obj 29 657 pow -1;
#X msg 21 585 set 240;
#X msg 21 706 speed \$1 shift;
#X msg 21 732 speed \$1 1;
#X obj 147 610 hsl 64 15 12 1200 0 0 empty empty empty -2 -8 0 10 -262144
-1 -1 0 1;
#X floatatom 152 680 5 0 0 0 - - -;
#X obj 152 631 / 240;
#X obj 152 656 pow -1;
#X msg 144 584 set 240;
#X msg 144 705 speed \$1 scale;
#X msg 144 731 speed \$1 2;
#X obj 21 777 s speed;
#X obj 436 283 r speed;
#X obj 844 773 declare -path ./;
#N canvas 248 116 621 465 Licence 0;
#X text 65 34 This file is part of MAGE / pHTS;
#X text 64 49 (the performative HMM-based speech synthesis system)
;
#X text 65 73 MAGE / pHTS is free software: you can redistribute it
and/or modify it under the terms of the GNU General Public License
as published by the Free Software Foundation \, either version 3 of
the license \, or any later version.;
#X text 65 134 MAGE / pHTS is distributed in the hope that it will
be useful \, but WITHOUT ANY WARRANTY \, without even the implied warranty
of MERCHANTABILITY or FITNESS FOR A PARTICULAR PURPOSE. See the GNU
General Public License for more details.;
#X text 66 209 You should have received a copy of the GNU General Public
License along with MAGE / pHTS. If not \, see http://www.gnu.org/licenses
;
#X text 44 19 /* -----------------------------------------------------
*/;
#X text 66 263 Copyright 2011 University of Mons :;
#X text 126 281 Numediart Institute for New Media Art;
#X text 259 295 ( www.numediart.org );
#X text 126 309 Acapela Group ( www.acapela-group.com );
#X text 70 338 Developed by :;
#X text 128 359 Maria Astrinaki \, Alexis Moinet \, Geoffrey Wilfart
\,;
#X text 204 373 Nicolas d'Alessandro \, Thierry Dutoit;
#X text 70 394 /* ------------------------------------------------------
*/;
#X restore 752 775 pd Licence;
#X msg 663 255 label ../../../data/labels/cmu-artic/alice01.lab;
#X msg 661 286 label ../../../data/labels/cmu-artic/alice02.lab;
#X obj 511 170 s engine;
#X obj 436 250 r engine;
#X msg 536 82 engineremove slt;
#X msg 536 107 engineremove awb;
#X msg 511 25 engineadd slt ../../../data/configFiles/cmu-artic/slt.conf
;
#X msg 511 49 engineadd awb ../../../data/configFiles/cmu-artic/awb.conf
;
#X connect 0 0 1 0;
#X connect 0 0 1 1;
#X connect 2 0 45 0;
#X connect 3 0 46 0;
#X connect 4 0 7 0;
#X connect 4 0 2 0;
#X connect 5 0 71 0;
#X connect 5 0 10 0;
#X connect 6 0 3 0;
#X connect 6 0 9 0;
#X connect 10 0 11 0;
#X connect 11 0 8 0;
#X connect 12 0 5 0;
#X connect 13 0 6 0;
#X connect 14 0 4 0;
#X connect 15 0 0 0;
#X connect 16 0 19 0;
#X connect 16 0 17 0;
#X connect 18 0 16 0;
#X connect 19 0 48 0;
#X connect 20 0 23 0;
#X connect 20 0 21 0;
#X connect 22 0 20 0;
#X connect 23 0 48 0;
#X connect 24 0 27 0;
#X connect 24 0 25 0;
#X connect 26 0 24 0;
#X connect 27 0 48 0;
#X connect 28 0 48 0;
#X connect 29 0 69 0;
#X connect 30 0 69 0;
#X connect 31 0 69 0;
#X connect 32 0 69 0;
#X connect 33 0 34 0;
#X connect 34 0 69 0;
#X connect 35 0 37 0;
#X connect 36 0 37 0;
#X connect 37 0 30 0;
#X connect 38 0 40 0;
#X connect 39 0 41 0;
#X connect 40 0 47 0;
#X connect 41 0 47 0;
#X connect 42 0 0 0;
#X connect 49 0 50 0;
#X connect 49 0 59 0;
#X connect 51 0 49 0;
#X connect 52 0 53 0;
#X connect 52 0 61 0;
#X connect 54 0 52 0;
#X connect 55 0 56 0;
#X connect 55 0 63 0;
#X connect 57 0 55 0;
#X connect 59 0 60 0;
#X connect 60 0 58 0;
#X connect 61 0 62 0;
#X connect 62 0 58 0;
#X connect 63 0 64 0;
#X connect 64 0 58 0;
#X connect 65 0 0 0;
#X connect 66 0 0 0;
#X connect 67 0 0 0;
#X connect 68 0 0 0;
#X connect 70 0 0 0;
#X connect 71 0 72 0;
#X connect 72 0 87 0;
#X connect 73 0 78 0;
#X connect 73 0 75 0;
#X connect 75 0 76 0;
#X connect 76 0 74 0;
#X connect 77 0 73 0;
#X connect 78 0 79 0;
#X connect 79 0 87 0;
#X connect 80 0 85 0;
#X connect 80 0 82 0;
#X connect 82 0 83 0;
#X connect 83 0 81 0;
#X connect 84 0 80 0;
#X connect 85 0 86 0;
#X connect 86 0 87 0;
#X connect 88 0 0 0;
#X connect 91 0 69 0;
#X connect 92 0 69 0;
#X connect 94 0 0 0;
#X connect 95 0 93 0;
#X connect 96 0 93 0;
#X connect 97 0 93 0;
#X connect 98 0 93 0;
