#N canvas 438 22 1180 711 12;
#X declare -lib mrpeach;
#X declare -path ./;
#X obj 32 25 import mrpeach;
#X msg 32 148 connect localhost 5454;
#X msg 32 169 disconnect;
#X obj 32 534 udpsend;
#X obj 32 126 loadbang;
#X obj 47 507 packOSC;
#X obj 32 556 tgl 15 0 empty empty connected 20 7 0 8 -4160 -257985
-1 1 1;
#X obj 47 217 r alpha;
#X floatatom 548 198 5 0 0 0 - - -;
#X obj 47 196 r pitch;
#X obj 47 239 r gamma;
#X obj 47 261 r porder;
#X floatatom 535 51 5 0 0 0 - - -;
#X floatatom 777 387 5 0 0 0 - - -;
#X obj 47 282 r speed;
#X obj 47 324 r volume;
#X obj 47 345 r duration;
#X obj 774 78 bng 15 250 50 0 empty empty empty 17 7 0 10 -262144 -1
-1;
#X obj 47 367 r resetMage;
#X obj 47 390 r resetVocoder;
#X obj 47 412 r addEngine;
#X obj 47 434 r setDefaultEngine;
#X msg 402 198 slt;
#X msg 368 198 rms;
#X msg 338 198 jmk;
#X msg 307 198 clb;
#X msg 278 198 bdl;
#X msg 247 198 awb;
#X obj 32 47 declare -path ./;
#X msg 593 178 0;
#X msg 593 198 1;
#X msg 593 218 2;
#X text 620 177 <--- overwrite;
#X text 620 196 <--- shift;
#X text 621 216 <--- scale;
#X obj 47 303 r lSpeed;
#N canvas 0 660 222 176 lSpeed 0;
#X obj 50 61 pack f;
#X msg 50 83 send /Mage/lSpeed \$1;
#X obj 50 107 s lSpeed;
#X obj 50 37 inlet;
#X connect 0 0 1 0;
#X connect 1 0 2 0;
#X connect 3 0 0 0;
#X restore 535 75 pd lSpeed;
#X obj 538 28 hsl 80 15 0 5 0 0 empty empty empty -2 -8 0 10 -262144
-1 -1 0 1;
#X floatatom 247 51 5 0 0 0 - - -;
#X obj 250 28 hsl 80 15 0 5 0 0 empty empty empty -2 2 0 10 -262144
-1 -1 0 1;
#N canvas 0 672 222 176 alpha 0;
#X obj 64 65 pack f;
#X msg 64 87 send /Mage/alpha \$1;
#X obj 64 111 s alpha;
#X obj 64 41 inlet;
#X connect 0 0 1 0;
#X connect 1 0 2 0;
#X connect 3 0 0 0;
#X restore 247 75 pd alpha;
#X floatatom 341 51 5 0 0 0 - - -;
#X obj 344 28 hsl 80 15 0 10 0 0 empty empty empty -2 -8 0 10 -262144
-1 -1 0 1;
#N canvas 0 565 247 180 volume 0;
#X obj 64 41 inlet;
#X obj 64 66 pack f;
#X msg 64 88 send /Mage/volume \$1;
#X obj 64 112 s volume;
#X connect 0 0 1 0;
#X connect 1 0 2 0;
#X connect 2 0 3 0;
#X restore 341 75 pd volume;
#N canvas 0 385 239 162 resetVocoder 0;
#X obj 43 34 inlet;
#X obj 43 57 pack b;
#X msg 43 79 send /Mage/resetVocoder;
#X obj 43 103 s resetVocoder;
#X connect 0 0 1 0;
#X connect 1 0 2 0;
#X connect 2 0 3 0;
#X restore 774 99 pd resetVocoder;
#X obj 774 28 bng 15 250 50 0 empty empty empty 17 7 0 10 -262144 -1
-1;
#N canvas 0 469 239 162 resetMage 0;
#X obj 43 34 inlet;
#X msg 43 79 send /Mage/resetMage;
#X obj 43 103 s resetMage;
#X obj 43 57 pack b;
#X connect 0 0 3 0;
#X connect 1 0 2 0;
#X connect 3 0 1 0;
#X restore 774 49 pd resetMage;
#X floatatom 438 51 5 0 0 0 - - -;
#X obj 441 28 hsl 80 15 0 5 0 0 empty empty empty -2 -8 0 10 -262144
-1 -1 0 1;
#N canvas 0 191 222 176 gamma 0;
#X obj 64 41 inlet;
#X obj 64 64 pack f;
#X msg 64 86 send /Mage/gamma \$1;
#X obj 64 110 s gamma;
#X connect 0 0 1 0;
#X connect 1 0 2 0;
#X connect 2 0 3 0;
#X restore 438 75 pd gamma;
#X floatatom 630 51 5 0 0 0 - - -;
#X obj 633 28 hsl 80 15 0 5 0 0 empty empty empty -2 -8 0 10 -262144
-1 -1 0 1;
#N canvas 0 631 222 176 porder 0;
#X obj 50 37 inlet;
#X obj 50 61 pack f;
#X msg 50 83 send /Mage/porder \$1;
#X obj 50 107 s porder;
#X connect 0 0 1 0;
#X connect 1 0 2 0;
#X connect 2 0 3 0;
#X restore 630 75 pd porder;
#X msg 402 273 slt;
#X msg 368 273 rms;
#X msg 338 273 jmk;
#X msg 307 273 clb;
#X msg 278 273 bdl;
#X msg 247 273 awb;
#X obj 47 455 r removeEngine;
#N canvas 0 201 303 173 removeEngine 0;
#X obj 61 37 inlet;
#X obj 61 60 pack s;
#X msg 61 82 send /Mage/removeEngine \$1;
#X obj 61 106 s removeEngine;
#X connect 0 0 1 0;
#X connect 1 0 2 0;
#X connect 2 0 3 0;
#X restore 315 308 pd removeEngine;
#N canvas 0 535 549 323 addEngine 0;
#N canvas 0 370 322 223 makepath 0;
#X obj 64 110 pack s s;
#X obj 64 88 getdir 1;
#X obj 64 66 bng 15 250 50 0 empty empty empty 17 7 0 10 -262144 -1
-1;
#X text 199 47 <----;
#X msg 135 49 symbol \$1;
#X obj 64 132 makesymbol %s/inouts/%s;
#X obj 135 26 inlet;
#X obj 64 155 outlet;
#X connect 0 0 5 0;
#X connect 1 0 0 0;
#X connect 2 0 1 0;
#X connect 4 0 0 1;
#X connect 4 0 2 0;
#X connect 5 0 7 0;
#X connect 6 0 4 0;
#X restore 178 217 pd makepath;
#X obj 98 8 inlet;
#X obj 54 159 pack s s;
#X msg 54 181 send /Mage/addEngine \$1 \$2;
#X obj 99 114 pack s s;
#X obj 99 92 getdir 1;
#X obj 99 70 bng 15 250 50 0 empty empty empty 17 7 0 10 -262144 -1
-1;
#X obj 98 31 pack s;
#X obj 54 203 s addEngine;
#X obj 99 136 makesymbol %s/data/voiceConfig/%s.conf;
#X connect 1 0 7 0;
#X connect 2 0 3 0;
#X connect 3 0 8 0;
#X connect 4 0 9 0;
#X connect 5 0 4 0;
#X connect 6 0 5 0;
#X connect 7 0 4 1;
#X connect 7 0 6 0;
#X connect 7 0 2 0;
#X connect 9 0 2 1;
#X restore 320 158 pd addEngine;
#N canvas 0 160 303 173 setDefaultEngine 0;
#X obj 61 108 s setDefaultEngine;
#X obj 61 62 pack s;
#X msg 61 84 send /Mage/setDefaultEngine \$1;
#X obj 61 37 inlet;
#X connect 1 0 2 0;
#X connect 2 0 0 0;
#X connect 3 0 1 0;
#X restore 315 233 pd setDefaultEngine;
#N canvas 0 269 301 196 pitch 0;
#X floatatom 50 60 5 0 0 0 - - -;
#X msg 50 106 send /Mage/pitch \$1 \$2;
#X obj 50 84 pack f f;
#X obj 50 130 s pitch;
#X obj 88 59 t b f;
#X obj 88 29 inlet;
#X text 128 27 overwrite \, shift \, scale;
#X obj 50 29 inlet;
#X connect 0 0 2 0;
#X connect 1 0 3 0;
#X connect 2 0 1 0;
#X connect 4 0 0 0;
#X connect 4 1 2 1;
#X connect 5 0 4 0;
#X connect 7 0 0 0;
#X restore 548 242 pd pitch;
#X floatatom 738 198 5 0 0 0 - - -;
#X msg 783 178 0;
#X msg 783 198 1;
#X msg 783 218 2;
#X text 810 177 <--- overwrite;
#X text 810 196 <--- shift;
#X text 811 216 <--- scale;
#N canvas 0 469 301 196 speed 0;
#X floatatom 50 60 5 0 0 0 - - -;
#X obj 88 29 inlet;
#X text 128 27 overwrite \, shift \, scale;
#X obj 50 29 inlet;
#X msg 50 107 send /Mage/speed \$1 \$2;
#X obj 50 131 s speed;
#X obj 50 83 pack f f;
#X obj 88 59 t b f;
#X connect 0 0 6 0;
#X connect 1 0 7 0;
#X connect 3 0 0 0;
#X connect 4 0 5 0;
#X connect 6 0 4 0;
#X connect 7 0 0 0;
#X connect 7 1 6 1;
#X restore 738 242 pd speed;
#X obj 741 155 hsl 80 15 -10 10 0 0 empty empty empty -2 -8 0 10 -262144
-1 -1 0 1;
#X obj 551 155 hsl 80 15 -50 50 0 0 empty empty empty -2 -8 0 10 -262144
-1 -1 0 1;
#X obj 47 476 r enableInterpolation;
#X floatatom 586 527 5 0 0 0 - - -;
#X floatatom 551 527 5 0 0 0 - - -;
#X floatatom 516 527 5 0 0 0 - - -;
#X floatatom 481 527 5 0 0 0 - - -;
#N canvas 0 340 372 214 interpolation 0;
#X obj 50 168 s enableInterpolation;
#X obj 50 23 inlet;
#X obj 50 55 pack s;
#X msg 50 144 send /Mage/enableInterpolation \$1 \$2 \$3 \$4 \$5;
#X obj 50 122 pack s f f f f;
#X obj 112 23 inlet;
#X obj 151 23 inlet;
#X obj 190 23 inlet;
#X obj 229 23 inlet;
#X obj 215 73 bng 15 250 50 0 empty empty empty 17 7 0 10 -262144 -1
-1;
#X symbolatom 50 88 10 0 0 0 - - -;
#X connect 1 0 2 0;
#X connect 2 0 10 0;
#X connect 3 0 0 0;
#X connect 4 0 3 0;
#X connect 5 0 4 1;
#X connect 5 0 9 0;
#X connect 6 0 9 0;
#X connect 6 0 4 2;
#X connect 7 0 4 3;
#X connect 7 0 9 0;
#X connect 8 0 4 4;
#X connect 8 0 9 0;
#X connect 9 0 10 0;
#X connect 10 0 4 0;
#X restore 439 568 pd interpolation;
#X msg 403 123 slt;
#X msg 369 123 rms;
#X msg 339 123 jmk;
#X msg 308 123 clb;
#X msg 279 123 bdl;
#X msg 248 123 awb;
#X msg 252 527 off;
#X msg 439 527 slt;
#X msg 405 527 rms;
#X msg 375 527 jmk;
#X msg 344 527 clb;
#X msg 315 527 bdl;
#X msg 284 527 awb;
#X obj 484 443 hsl 80 15 0 1 0 0 empty empty empty -2 2 0 10 -262144
-1 -1 0 1;
#X obj 519 461 hsl 80 15 0 1 0 0 empty empty empty -2 2 0 10 -262144
-1 -1 0 1;
#X obj 554 480 hsl 80 15 0 1 0 0 empty empty empty -2 2 0 10 -262144
-1 -1 0 1;
#X obj 589 500 hsl 80 15 0 1 0 0 empty empty empty -2 2 0 10 -262144
-1 -1 0 1;
#X obj 691 475 vsl 15 80 0 1 0 0 empty empty empty 0 -9 0 10 -262144
-1 -1 0 1;
#X msg 955 389 0;
#X msg 955 409 1;
#X msg 955 429 2;
#X text 982 388 <--- overwrite;
#X text 982 407 <--- shift;
#X text 983 427 <--- scale;
#X floatatom 812 387 5 0 0 0 - - -;
#X floatatom 847 387 5 0 0 0 - - -;
#X floatatom 882 387 5 0 0 0 - - -;
#X floatatom 916 387 5 0 0 0 - - -;
#N canvas 671 470 499 281 duration 0;
#X floatatom 82 117 5 0 0 0 - - -;
#X obj 135 192 s duration;
#X obj 135 146 pack f f f f f f;
#X floatatom 120 117 5 0 0 0 - - -;
#X floatatom 158 117 5 0 0 0 - - -;
#X floatatom 196 117 5 0 0 0 - - -;
#X floatatom 234 117 5 0 0 0 - - -;
#X msg 135 168 send /Mage/duration \$1 \$2 \$3 \$4 \$5 \$6;
#X obj 272 37 inlet;
#X text 313 35 overwrite \, shift \, scale;
#X floatatom 272 117 5 0 0 0 - - -;
#X obj 234 37 inlet;
#X obj 196 37 inlet;
#X obj 158 37 inlet;
#X obj 120 37 inlet;
#X obj 82 37 inlet;
#X obj 196 80 bng 15 250 50 0 empty empty empty 17 7 0 10 -262144 -1
-1;
#X connect 0 0 2 0;
#X connect 2 0 7 0;
#X connect 3 0 2 1;
#X connect 4 0 2 2;
#X connect 5 0 2 3;
#X connect 6 0 2 4;
#X connect 7 0 1 0;
#X connect 8 0 10 0;
#X connect 8 0 16 0;
#X connect 10 0 2 5;
#X connect 11 0 6 0;
#X connect 11 0 16 0;
#X connect 12 0 5 0;
#X connect 12 0 16 0;
#X connect 13 0 4 0;
#X connect 13 0 16 0;
#X connect 14 0 3 0;
#X connect 14 0 16 0;
#X connect 15 0 0 0;
#X connect 16 0 10 0;
#X connect 16 0 6 0;
#X connect 16 0 5 0;
#X connect 16 0 4 0;
#X connect 16 0 3 0;
#X connect 16 0 0 0;
#X restore 850 421 pd duration;
#N canvas 245 88 489 449 Licence 0;
#X text 65 34 This file is part of MAGE / pHTS;
#X text 64 49 (the performative HMM-based speech synthesis system)
;
#X text 65 73 MAGE / pHTS is free software: you can redistribute it
and/or modify it under the terms of the GNU General Public License
as published by the Free Software Foundation \, either version 3 of
the license \, or any later version.;
#X text 65 134 MAGE / pHTS is distributed in the hope that it will
be useful \, but WITHOUT ANY WARRANTY \, without even the implied warranty
of MERCHANTABILITY or FITNESS FOR A PARTICULAR PURPOSE. See the GNU
General Public License for more details.;
#X text 66 209 You should have received a copy of the GNU General Public
License along with MAGE / pHTS. If not \, see http://www.gnu.org/licenses
;
#X text 44 19 /* -----------------------------------------------------
*/;
#X text 66 263 Copyright 2011 University of Mons :;
#X text 126 281 Numediart Institute for New Media Art;
#X text 270 295 ( www.numediart.org );
#X text 126 309 Acapela Group ( www.acapela-group.com );
#X text 70 338 Developed by :;
#X text 128 359 Maria Astrinaki \, Alexis Moinet \, Geoffrey Wilfart
\,;
#X text 204 373 Nicolas d'Alessandro \, Thierry Dutoit;
#X text 70 394 /* ------------------------------------------------------
*/;
#X restore 338 638 pd Licence;
#X connect 1 0 3 0;
#X connect 2 0 3 0;
#X connect 3 0 6 0;
#X connect 4 0 1 0;
#X connect 5 0 3 0;
#X connect 7 0 5 0;
#X connect 8 0 63 0;
#X connect 9 0 5 0;
#X connect 10 0 5 0;
#X connect 11 0 5 0;
#X connect 12 0 36 0;
#X connect 13 0 108 0;
#X connect 14 0 5 0;
#X connect 15 0 5 0;
#X connect 16 0 5 0;
#X connect 17 0 44 0;
#X connect 18 0 5 0;
#X connect 19 0 5 0;
#X connect 20 0 5 0;
#X connect 21 0 5 0;
#X connect 22 0 62 0;
#X connect 23 0 62 0;
#X connect 24 0 62 0;
#X connect 25 0 62 0;
#X connect 26 0 62 0;
#X connect 27 0 62 0;
#X connect 29 0 63 1;
#X connect 30 0 63 1;
#X connect 31 0 63 1;
#X connect 35 0 5 0;
#X connect 37 0 12 0;
#X connect 38 0 40 0;
#X connect 39 0 38 0;
#X connect 41 0 43 0;
#X connect 42 0 41 0;
#X connect 45 0 46 0;
#X connect 47 0 49 0;
#X connect 48 0 47 0;
#X connect 50 0 52 0;
#X connect 51 0 50 0;
#X connect 53 0 60 0;
#X connect 54 0 60 0;
#X connect 55 0 60 0;
#X connect 56 0 60 0;
#X connect 57 0 60 0;
#X connect 58 0 60 0;
#X connect 59 0 5 0;
#X connect 64 0 71 0;
#X connect 65 0 71 1;
#X connect 66 0 71 1;
#X connect 67 0 71 1;
#X connect 72 0 64 0;
#X connect 73 0 8 0;
#X connect 74 0 5 0;
#X connect 75 0 79 4;
#X connect 76 0 79 3;
#X connect 77 0 79 2;
#X connect 78 0 79 1;
#X connect 80 0 61 0;
#X connect 81 0 61 0;
#X connect 82 0 61 0;
#X connect 83 0 61 0;
#X connect 84 0 61 0;
#X connect 85 0 61 0;
#X connect 86 0 79 0;
#X connect 87 0 79 0;
#X connect 88 0 79 0;
#X connect 89 0 79 0;
#X connect 90 0 79 0;
#X connect 91 0 79 0;
#X connect 92 0 79 0;
#X connect 93 0 78 0;
#X connect 94 0 77 0;
#X connect 95 0 76 0;
#X connect 96 0 75 0;
#X connect 97 0 93 0;
#X connect 97 0 94 0;
#X connect 97 0 95 0;
#X connect 97 0 96 0;
#X connect 98 0 108 5;
#X connect 99 0 108 5;
#X connect 100 0 108 5;
#X connect 104 0 108 1;
#X connect 105 0 108 2;
#X connect 106 0 108 3;
#X connect 107 0 108 4;
