#N canvas 745 406 921 686 10;
#X obj 148 245 mage~;
#X obj 145 287 dac~;
#X msg 44 134 alpha \$1;
#X msg 142 134 speed \$1;
#X msg 235 134 volume \$1;
#X obj 47 48 hsl 64 15 0.1 0.9 0 0 empty empty empty -2 -8 0 10 -262144
-1 -1 3544 1;
#X obj 145 48 hsl 64 15 12 1200 0 0 empty empty empty -2 -8 0 10 -262144
-1 -1 1209 1;
#X obj 238 48 hsl 64 15 0 1 0 0 empty empty empty -2 -8 0 10 -262144
-1 -1 6300 1;
#X floatatom 68 112 5 0 0 0 - - -;
#X floatatom 166 114 5 0 0 0 - - -;
#X floatatom 275 115 5 0 0 0 - - -;
#X obj 166 73 / 240;
#X obj 166 93 pow -1;
#X msg 142 24 set 240;
#X msg 235 24 set 1;
#X msg 44 25 set 0.55;
#X msg 205 213 reset;
#X connect 0 0 1 0;
#X connect 0 0 1 1;
#X connect 2 0 0 0;
#X connect 3 0 0 0;
#X connect 4 0 0 0;
#X connect 5 0 8 0;
#X connect 5 0 2 0;
#X connect 6 0 3 0;
#X connect 6 0 11 0;
#X connect 7 0 4 0;
#X connect 7 0 10 0;
#X connect 11 0 12 0;
#X connect 12 0 9 0;
#X connect 13 0 6 0;
#X connect 14 0 7 0;
#X connect 15 0 5 0;
#X connect 16 0 0 0;
